<mxfile host="app.diagrams.net" modified="2024-04-12T04:12:32.685Z" agent="Mozilla/5.0 (Windows NT 10.0; Win64; x64) AppleWebKit/537.36 (KHTML, like Gecko) Chrome/123.0.0.0 Safari/537.36" etag="OW1TzgH65qo1jQnUBY0W" version="24.0.2" type="device" pages="2">
  <diagram name="Page-1" id="KcBYBZSs8keK0Yzdxh5D">
    <mxGraphModel dx="1022" dy="683" grid="1" gridSize="10" guides="1" tooltips="1" connect="1" arrows="1" fold="1" page="1" pageScale="1" pageWidth="850" pageHeight="1100" math="0" shadow="0">
      <root>
        <mxCell id="0" />
        <mxCell id="1" parent="0" />
        <mxCell id="J7xR3A1omSEvaa90jN4N-1" value="" style="shape=umlActor;verticalLabelPosition=bottom;verticalAlign=top;html=1;outlineConnect=0;" vertex="1" parent="1">
          <mxGeometry x="155" y="85" width="30" height="60" as="geometry" />
        </mxCell>
        <mxCell id="J7xR3A1omSEvaa90jN4N-7" value="" style="rounded=0;orthogonalLoop=1;jettySize=auto;html=1;startArrow=classic;startFill=1;" edge="1" parent="1" source="J7xR3A1omSEvaa90jN4N-3" target="J7xR3A1omSEvaa90jN4N-6">
          <mxGeometry relative="1" as="geometry" />
        </mxCell>
        <mxCell id="J7xR3A1omSEvaa90jN4N-3" value="Tecnólogo Médico" style="whiteSpace=wrap;html=1;aspect=fixed;fontSize=10;" vertex="1" parent="1">
          <mxGeometry x="195" y="90" width="50" height="50" as="geometry" />
        </mxCell>
        <mxCell id="J7xR3A1omSEvaa90jN4N-12" value="" style="edgeStyle=orthogonalEdgeStyle;rounded=0;orthogonalLoop=1;jettySize=auto;html=1;" edge="1" parent="1" source="J7xR3A1omSEvaa90jN4N-6" target="J7xR3A1omSEvaa90jN4N-9">
          <mxGeometry relative="1" as="geometry" />
        </mxCell>
        <mxCell id="J7xR3A1omSEvaa90jN4N-6" value="Software" style="ellipse;whiteSpace=wrap;html=1;aspect=fixed;" vertex="1" parent="1">
          <mxGeometry x="355" y="40" width="150" height="150" as="geometry" />
        </mxCell>
        <mxCell id="J7xR3A1omSEvaa90jN4N-8" value="" style="shape=umlActor;verticalLabelPosition=bottom;verticalAlign=top;html=1;outlineConnect=0;" vertex="1" parent="1">
          <mxGeometry x="665" y="85" width="30" height="60" as="geometry" />
        </mxCell>
        <mxCell id="J7xR3A1omSEvaa90jN4N-9" value="Médico Cardiólogo y/o Radiólogo" style="whiteSpace=wrap;html=1;aspect=fixed;fontSize=10;" vertex="1" parent="1">
          <mxGeometry x="605" y="90" width="50" height="50" as="geometry" />
        </mxCell>
        <mxCell id="J7xR3A1omSEvaa90jN4N-13" value="Imagen &lt;br style=&quot;font-size: 9px;&quot;&gt;modificada" style="text;html=1;align=center;verticalAlign=middle;resizable=0;points=[];autosize=1;strokeColor=none;fillColor=none;fontSize=9;" vertex="1" parent="1">
          <mxGeometry x="540" y="80" width="70" height="40" as="geometry" />
        </mxCell>
        <mxCell id="J7xR3A1omSEvaa90jN4N-14" value="Imagen&lt;div&gt;modificada&lt;/div&gt;" style="text;html=1;align=center;verticalAlign=middle;resizable=0;points=[];autosize=1;strokeColor=none;fillColor=none;fontSize=9;" vertex="1" parent="1">
          <mxGeometry x="245" y="80" width="70" height="40" as="geometry" />
        </mxCell>
        <mxCell id="J7xR3A1omSEvaa90jN4N-15" value="Imagen a&lt;div&gt;modificar&lt;/div&gt;" style="text;html=1;align=center;verticalAlign=middle;resizable=0;points=[];autosize=1;strokeColor=none;fillColor=none;fontSize=9;" vertex="1" parent="1">
          <mxGeometry x="295" y="108" width="60" height="40" as="geometry" />
        </mxCell>
      </root>
    </mxGraphModel>
  </diagram>
  <diagram id="rois1OzwUSoFhSnFPRcG" name="Page-2">
    <mxGraphModel dx="1226" dy="819" grid="1" gridSize="10" guides="1" tooltips="1" connect="1" arrows="1" fold="1" page="1" pageScale="1" pageWidth="1100" pageHeight="850" math="0" shadow="0">
      <root>
        <mxCell id="0" />
        <mxCell id="1" parent="0" />
        <mxCell id="fQByTUNaAAhuk4Dc6WSL-1" value="Imagen" style="swimlane;fontStyle=0;childLayout=stackLayout;horizontal=1;startSize=26;fillColor=none;horizontalStack=0;resizeParent=1;resizeParentMax=0;resizeLast=0;collapsible=1;marginBottom=0;whiteSpace=wrap;html=1;" vertex="1" parent="1">
          <mxGeometry x="605" y="320" width="140" height="52" as="geometry" />
        </mxCell>
        <mxCell id="fQByTUNaAAhuk4Dc6WSL-2" value="id_imagen" style="text;strokeColor=none;fillColor=none;align=left;verticalAlign=top;spacingLeft=4;spacingRight=4;overflow=hidden;rotatable=0;points=[[0,0.5],[1,0.5]];portConstraint=eastwest;whiteSpace=wrap;html=1;" vertex="1" parent="fQByTUNaAAhuk4Dc6WSL-1">
          <mxGeometry y="26" width="140" height="26" as="geometry" />
        </mxCell>
        <mxCell id="fQByTUNaAAhuk4Dc6WSL-6" value="Cardiólogo" style="swimlane;fontStyle=0;childLayout=stackLayout;horizontal=1;startSize=26;fillColor=none;horizontalStack=0;resizeParent=1;resizeParentMax=0;resizeLast=0;collapsible=1;marginBottom=0;whiteSpace=wrap;html=1;" vertex="1" parent="1">
          <mxGeometry x="315" y="172" width="140" height="156" as="geometry" />
        </mxCell>
        <mxCell id="fQByTUNaAAhuk4Dc6WSL-7" value="id_medico" style="text;strokeColor=none;fillColor=none;align=left;verticalAlign=top;spacingLeft=4;spacingRight=4;overflow=hidden;rotatable=0;points=[[0,0.5],[1,0.5]];portConstraint=eastwest;whiteSpace=wrap;html=1;" vertex="1" parent="fQByTUNaAAhuk4Dc6WSL-6">
          <mxGeometry y="26" width="140" height="26" as="geometry" />
        </mxCell>
        <mxCell id="fQByTUNaAAhuk4Dc6WSL-8" value="nombre" style="text;strokeColor=none;fillColor=none;align=left;verticalAlign=top;spacingLeft=4;spacingRight=4;overflow=hidden;rotatable=0;points=[[0,0.5],[1,0.5]];portConstraint=eastwest;whiteSpace=wrap;html=1;" vertex="1" parent="fQByTUNaAAhuk4Dc6WSL-6">
          <mxGeometry y="52" width="140" height="26" as="geometry" />
        </mxCell>
        <mxCell id="fQByTUNaAAhuk4Dc6WSL-9" value="área" style="text;strokeColor=none;fillColor=none;align=left;verticalAlign=top;spacingLeft=4;spacingRight=4;overflow=hidden;rotatable=0;points=[[0,0.5],[1,0.5]];portConstraint=eastwest;whiteSpace=wrap;html=1;" vertex="1" parent="fQByTUNaAAhuk4Dc6WSL-6">
          <mxGeometry y="78" width="140" height="26" as="geometry" />
        </mxCell>
        <mxCell id="fQByTUNaAAhuk4Dc6WSL-67" value="oficina" style="text;strokeColor=none;fillColor=none;align=left;verticalAlign=top;spacingLeft=4;spacingRight=4;overflow=hidden;rotatable=0;points=[[0,0.5],[1,0.5]];portConstraint=eastwest;whiteSpace=wrap;html=1;" vertex="1" parent="fQByTUNaAAhuk4Dc6WSL-6">
          <mxGeometry y="104" width="140" height="26" as="geometry" />
        </mxCell>
        <mxCell id="fQByTUNaAAhuk4Dc6WSL-69" value="horario" style="text;strokeColor=none;fillColor=none;align=left;verticalAlign=top;spacingLeft=4;spacingRight=4;overflow=hidden;rotatable=0;points=[[0,0.5],[1,0.5]];portConstraint=eastwest;whiteSpace=wrap;html=1;" vertex="1" parent="fQByTUNaAAhuk4Dc6WSL-6">
          <mxGeometry y="130" width="140" height="26" as="geometry" />
        </mxCell>
        <mxCell id="fQByTUNaAAhuk4Dc6WSL-10" value="Radiólogo" style="swimlane;fontStyle=0;childLayout=stackLayout;horizontal=1;startSize=26;fillColor=none;horizontalStack=0;resizeParent=1;resizeParentMax=0;resizeLast=0;collapsible=1;marginBottom=0;whiteSpace=wrap;html=1;" vertex="1" parent="1">
          <mxGeometry x="315" y="414" width="140" height="156" as="geometry" />
        </mxCell>
        <mxCell id="fQByTUNaAAhuk4Dc6WSL-11" value="id_medico" style="text;strokeColor=none;fillColor=none;align=left;verticalAlign=top;spacingLeft=4;spacingRight=4;overflow=hidden;rotatable=0;points=[[0,0.5],[1,0.5]];portConstraint=eastwest;whiteSpace=wrap;html=1;" vertex="1" parent="fQByTUNaAAhuk4Dc6WSL-10">
          <mxGeometry y="26" width="140" height="26" as="geometry" />
        </mxCell>
        <mxCell id="fQByTUNaAAhuk4Dc6WSL-12" value="nombre" style="text;strokeColor=none;fillColor=none;align=left;verticalAlign=top;spacingLeft=4;spacingRight=4;overflow=hidden;rotatable=0;points=[[0,0.5],[1,0.5]];portConstraint=eastwest;whiteSpace=wrap;html=1;" vertex="1" parent="fQByTUNaAAhuk4Dc6WSL-10">
          <mxGeometry y="52" width="140" height="26" as="geometry" />
        </mxCell>
        <mxCell id="fQByTUNaAAhuk4Dc6WSL-13" value="área" style="text;strokeColor=none;fillColor=none;align=left;verticalAlign=top;spacingLeft=4;spacingRight=4;overflow=hidden;rotatable=0;points=[[0,0.5],[1,0.5]];portConstraint=eastwest;whiteSpace=wrap;html=1;" vertex="1" parent="fQByTUNaAAhuk4Dc6WSL-10">
          <mxGeometry y="78" width="140" height="26" as="geometry" />
        </mxCell>
        <mxCell id="fQByTUNaAAhuk4Dc6WSL-68" value="oficina" style="text;strokeColor=none;fillColor=none;align=left;verticalAlign=top;spacingLeft=4;spacingRight=4;overflow=hidden;rotatable=0;points=[[0,0.5],[1,0.5]];portConstraint=eastwest;whiteSpace=wrap;html=1;" vertex="1" parent="fQByTUNaAAhuk4Dc6WSL-10">
          <mxGeometry y="104" width="140" height="26" as="geometry" />
        </mxCell>
        <mxCell id="fQByTUNaAAhuk4Dc6WSL-72" value="horario" style="text;strokeColor=none;fillColor=none;align=left;verticalAlign=top;spacingLeft=4;spacingRight=4;overflow=hidden;rotatable=0;points=[[0,0.5],[1,0.5]];portConstraint=eastwest;whiteSpace=wrap;html=1;" vertex="1" parent="fQByTUNaAAhuk4Dc6WSL-10">
          <mxGeometry y="130" width="140" height="26" as="geometry" />
        </mxCell>
        <mxCell id="fQByTUNaAAhuk4Dc6WSL-14" value="Paciente" style="swimlane;fontStyle=0;childLayout=stackLayout;horizontal=1;startSize=26;fillColor=none;horizontalStack=0;resizeParent=1;resizeParentMax=0;resizeLast=0;collapsible=1;marginBottom=0;whiteSpace=wrap;html=1;" vertex="1" parent="1">
          <mxGeometry x="815" y="112" width="140" height="156" as="geometry">
            <mxRectangle x="830" y="203" width="90" height="30" as="alternateBounds" />
          </mxGeometry>
        </mxCell>
        <mxCell id="fQByTUNaAAhuk4Dc6WSL-15" value="rut&lt;div&gt;&lt;br&gt;&lt;/div&gt;" style="text;strokeColor=none;fillColor=none;align=left;verticalAlign=top;spacingLeft=4;spacingRight=4;overflow=hidden;rotatable=0;points=[[0,0.5],[1,0.5]];portConstraint=eastwest;whiteSpace=wrap;html=1;" vertex="1" parent="fQByTUNaAAhuk4Dc6WSL-14">
          <mxGeometry y="26" width="140" height="26" as="geometry" />
        </mxCell>
        <mxCell id="fQByTUNaAAhuk4Dc6WSL-16" value="nombre" style="text;strokeColor=none;fillColor=none;align=left;verticalAlign=top;spacingLeft=4;spacingRight=4;overflow=hidden;rotatable=0;points=[[0,0.5],[1,0.5]];portConstraint=eastwest;whiteSpace=wrap;html=1;" vertex="1" parent="fQByTUNaAAhuk4Dc6WSL-14">
          <mxGeometry y="52" width="140" height="26" as="geometry" />
        </mxCell>
        <mxCell id="fQByTUNaAAhuk4Dc6WSL-17" value="teléfono" style="text;strokeColor=none;fillColor=none;align=left;verticalAlign=top;spacingLeft=4;spacingRight=4;overflow=hidden;rotatable=0;points=[[0,0.5],[1,0.5]];portConstraint=eastwest;whiteSpace=wrap;html=1;" vertex="1" parent="fQByTUNaAAhuk4Dc6WSL-14">
          <mxGeometry y="78" width="140" height="26" as="geometry" />
        </mxCell>
        <mxCell id="fQByTUNaAAhuk4Dc6WSL-57" value="sintomatología" style="text;strokeColor=none;fillColor=none;align=left;verticalAlign=top;spacingLeft=4;spacingRight=4;overflow=hidden;rotatable=0;points=[[0,0.5],[1,0.5]];portConstraint=eastwest;whiteSpace=wrap;html=1;" vertex="1" parent="fQByTUNaAAhuk4Dc6WSL-14">
          <mxGeometry y="104" width="140" height="26" as="geometry" />
        </mxCell>
        <mxCell id="fQByTUNaAAhuk4Dc6WSL-71" value="hora_reserva" style="text;strokeColor=none;fillColor=none;align=left;verticalAlign=top;spacingLeft=4;spacingRight=4;overflow=hidden;rotatable=0;points=[[0,0.5],[1,0.5]];portConstraint=eastwest;whiteSpace=wrap;html=1;" vertex="1" parent="fQByTUNaAAhuk4Dc6WSL-14">
          <mxGeometry y="130" width="140" height="26" as="geometry" />
        </mxCell>
        <mxCell id="fQByTUNaAAhuk4Dc6WSL-37" style="edgeStyle=orthogonalEdgeStyle;rounded=0;orthogonalLoop=1;jettySize=auto;html=1;exitX=0.5;exitY=0;exitDx=0;exitDy=0;endArrow=none;endFill=0;entryX=0.5;entryY=1;entryDx=0;entryDy=0;" edge="1" parent="1" source="fQByTUNaAAhuk4Dc6WSL-18" target="fQByTUNaAAhuk4Dc6WSL-32">
          <mxGeometry relative="1" as="geometry">
            <mxPoint x="885" y="402" as="targetPoint" />
          </mxGeometry>
        </mxCell>
        <mxCell id="fQByTUNaAAhuk4Dc6WSL-18" value="Tecnólogo Médico" style="swimlane;fontStyle=0;childLayout=stackLayout;horizontal=1;startSize=26;fillColor=none;horizontalStack=0;resizeParent=1;resizeParentMax=0;resizeLast=0;collapsible=1;marginBottom=0;whiteSpace=wrap;html=1;" vertex="1" parent="1">
          <mxGeometry x="815" y="452" width="140" height="130" as="geometry" />
        </mxCell>
        <mxCell id="fQByTUNaAAhuk4Dc6WSL-19" value="id_tecnologo" style="text;strokeColor=none;fillColor=none;align=left;verticalAlign=top;spacingLeft=4;spacingRight=4;overflow=hidden;rotatable=0;points=[[0,0.5],[1,0.5]];portConstraint=eastwest;whiteSpace=wrap;html=1;" vertex="1" parent="fQByTUNaAAhuk4Dc6WSL-18">
          <mxGeometry y="26" width="140" height="26" as="geometry" />
        </mxCell>
        <mxCell id="fQByTUNaAAhuk4Dc6WSL-20" value="nombre" style="text;strokeColor=none;fillColor=none;align=left;verticalAlign=top;spacingLeft=4;spacingRight=4;overflow=hidden;rotatable=0;points=[[0,0.5],[1,0.5]];portConstraint=eastwest;whiteSpace=wrap;html=1;" vertex="1" parent="fQByTUNaAAhuk4Dc6WSL-18">
          <mxGeometry y="52" width="140" height="26" as="geometry" />
        </mxCell>
        <mxCell id="fQByTUNaAAhuk4Dc6WSL-21" value="área" style="text;strokeColor=none;fillColor=none;align=left;verticalAlign=top;spacingLeft=4;spacingRight=4;overflow=hidden;rotatable=0;points=[[0,0.5],[1,0.5]];portConstraint=eastwest;whiteSpace=wrap;html=1;" vertex="1" parent="fQByTUNaAAhuk4Dc6WSL-18">
          <mxGeometry y="78" width="140" height="26" as="geometry" />
        </mxCell>
        <mxCell id="fQByTUNaAAhuk4Dc6WSL-74" value="horario" style="text;strokeColor=none;fillColor=none;align=left;verticalAlign=top;spacingLeft=4;spacingRight=4;overflow=hidden;rotatable=0;points=[[0,0.5],[1,0.5]];portConstraint=eastwest;whiteSpace=wrap;html=1;" vertex="1" parent="fQByTUNaAAhuk4Dc6WSL-18">
          <mxGeometry y="104" width="140" height="26" as="geometry" />
        </mxCell>
        <mxCell id="fQByTUNaAAhuk4Dc6WSL-22" value="Formato DICOM" style="swimlane;fontStyle=0;childLayout=stackLayout;horizontal=1;startSize=26;fillColor=none;horizontalStack=0;resizeParent=1;resizeParentMax=0;resizeLast=0;collapsible=1;marginBottom=0;whiteSpace=wrap;html=1;" vertex="1" parent="1">
          <mxGeometry x="605" y="452" width="140" height="286" as="geometry" />
        </mxCell>
        <mxCell id="fQByTUNaAAhuk4Dc6WSL-23" value="fecha_estudio&lt;div&gt;&lt;br&gt;&lt;/div&gt;" style="text;strokeColor=none;fillColor=none;align=left;verticalAlign=top;spacingLeft=4;spacingRight=4;overflow=hidden;rotatable=0;points=[[0,0.5],[1,0.5]];portConstraint=eastwest;whiteSpace=wrap;html=1;" vertex="1" parent="fQByTUNaAAhuk4Dc6WSL-22">
          <mxGeometry y="26" width="140" height="26" as="geometry" />
        </mxCell>
        <mxCell id="fQByTUNaAAhuk4Dc6WSL-24" value="hora_estudio" style="text;strokeColor=none;fillColor=none;align=left;verticalAlign=top;spacingLeft=4;spacingRight=4;overflow=hidden;rotatable=0;points=[[0,0.5],[1,0.5]];portConstraint=eastwest;whiteSpace=wrap;html=1;" vertex="1" parent="fQByTUNaAAhuk4Dc6WSL-22">
          <mxGeometry y="52" width="140" height="26" as="geometry" />
        </mxCell>
        <mxCell id="fQByTUNaAAhuk4Dc6WSL-25" value="hora_imagen" style="text;strokeColor=none;fillColor=none;align=left;verticalAlign=top;spacingLeft=4;spacingRight=4;overflow=hidden;rotatable=0;points=[[0,0.5],[1,0.5]];portConstraint=eastwest;whiteSpace=wrap;html=1;" vertex="1" parent="fQByTUNaAAhuk4Dc6WSL-22">
          <mxGeometry y="78" width="140" height="26" as="geometry" />
        </mxCell>
        <mxCell id="fQByTUNaAAhuk4Dc6WSL-59" value="id_paciente" style="text;strokeColor=none;fillColor=none;align=left;verticalAlign=top;spacingLeft=4;spacingRight=4;overflow=hidden;rotatable=0;points=[[0,0.5],[1,0.5]];portConstraint=eastwest;whiteSpace=wrap;html=1;" vertex="1" parent="fQByTUNaAAhuk4Dc6WSL-22">
          <mxGeometry y="104" width="140" height="26" as="geometry" />
        </mxCell>
        <mxCell id="fQByTUNaAAhuk4Dc6WSL-61" value="sexo_paciente" style="text;strokeColor=none;fillColor=none;align=left;verticalAlign=top;spacingLeft=4;spacingRight=4;overflow=hidden;rotatable=0;points=[[0,0.5],[1,0.5]];portConstraint=eastwest;whiteSpace=wrap;html=1;" vertex="1" parent="fQByTUNaAAhuk4Dc6WSL-22">
          <mxGeometry y="130" width="140" height="26" as="geometry" />
        </mxCell>
        <mxCell id="fQByTUNaAAhuk4Dc6WSL-62" value="edad_paciente" style="text;strokeColor=none;fillColor=none;align=left;verticalAlign=top;spacingLeft=4;spacingRight=4;overflow=hidden;rotatable=0;points=[[0,0.5],[1,0.5]];portConstraint=eastwest;whiteSpace=wrap;html=1;" vertex="1" parent="fQByTUNaAAhuk4Dc6WSL-22">
          <mxGeometry y="156" width="140" height="26" as="geometry" />
        </mxCell>
        <mxCell id="fQByTUNaAAhuk4Dc6WSL-63" value="parte_del_cuerpo" style="text;strokeColor=none;fillColor=none;align=left;verticalAlign=top;spacingLeft=4;spacingRight=4;overflow=hidden;rotatable=0;points=[[0,0.5],[1,0.5]];portConstraint=eastwest;whiteSpace=wrap;html=1;" vertex="1" parent="fQByTUNaAAhuk4Dc6WSL-22">
          <mxGeometry y="182" width="140" height="26" as="geometry" />
        </mxCell>
        <mxCell id="fQByTUNaAAhuk4Dc6WSL-64" value="voltaje_tubo" style="text;strokeColor=none;fillColor=none;align=left;verticalAlign=top;spacingLeft=4;spacingRight=4;overflow=hidden;rotatable=0;points=[[0,0.5],[1,0.5]];portConstraint=eastwest;whiteSpace=wrap;html=1;" vertex="1" parent="fQByTUNaAAhuk4Dc6WSL-22">
          <mxGeometry y="208" width="140" height="26" as="geometry" />
        </mxCell>
        <mxCell id="fQByTUNaAAhuk4Dc6WSL-65" value="columnas" style="text;strokeColor=none;fillColor=none;align=left;verticalAlign=top;spacingLeft=4;spacingRight=4;overflow=hidden;rotatable=0;points=[[0,0.5],[1,0.5]];portConstraint=eastwest;whiteSpace=wrap;html=1;" vertex="1" parent="fQByTUNaAAhuk4Dc6WSL-22">
          <mxGeometry y="234" width="140" height="26" as="geometry" />
        </mxCell>
        <mxCell id="fQByTUNaAAhuk4Dc6WSL-66" value="filas" style="text;strokeColor=none;fillColor=none;align=left;verticalAlign=top;spacingLeft=4;spacingRight=4;overflow=hidden;rotatable=0;points=[[0,0.5],[1,0.5]];portConstraint=eastwest;whiteSpace=wrap;html=1;" vertex="1" parent="fQByTUNaAAhuk4Dc6WSL-22">
          <mxGeometry y="260" width="140" height="26" as="geometry" />
        </mxCell>
        <mxCell id="fQByTUNaAAhuk4Dc6WSL-28" value="Diagnóstico" style="swimlane;fontStyle=0;childLayout=stackLayout;horizontal=1;startSize=26;fillColor=none;horizontalStack=0;resizeParent=1;resizeParentMax=0;resizeLast=0;collapsible=1;marginBottom=0;whiteSpace=wrap;html=1;" vertex="1" parent="1">
          <mxGeometry x="115" y="304" width="140" height="130" as="geometry" />
        </mxCell>
        <mxCell id="fQByTUNaAAhuk4Dc6WSL-29" value="tipo_diagnostico" style="text;strokeColor=none;fillColor=none;align=left;verticalAlign=top;spacingLeft=4;spacingRight=4;overflow=hidden;rotatable=0;points=[[0,0.5],[1,0.5]];portConstraint=eastwest;whiteSpace=wrap;html=1;" vertex="1" parent="fQByTUNaAAhuk4Dc6WSL-28">
          <mxGeometry y="26" width="140" height="26" as="geometry" />
        </mxCell>
        <mxCell id="fQByTUNaAAhuk4Dc6WSL-30" value="detalles_diagnostico" style="text;strokeColor=none;fillColor=none;align=left;verticalAlign=top;spacingLeft=4;spacingRight=4;overflow=hidden;rotatable=0;points=[[0,0.5],[1,0.5]];portConstraint=eastwest;whiteSpace=wrap;html=1;" vertex="1" parent="fQByTUNaAAhuk4Dc6WSL-28">
          <mxGeometry y="52" width="140" height="26" as="geometry" />
        </mxCell>
        <mxCell id="fQByTUNaAAhuk4Dc6WSL-31" value="fecha_diagnostico" style="text;strokeColor=none;fillColor=none;align=left;verticalAlign=top;spacingLeft=4;spacingRight=4;overflow=hidden;rotatable=0;points=[[0,0.5],[1,0.5]];portConstraint=eastwest;whiteSpace=wrap;html=1;" vertex="1" parent="fQByTUNaAAhuk4Dc6WSL-28">
          <mxGeometry y="78" width="140" height="26" as="geometry" />
        </mxCell>
        <mxCell id="fQByTUNaAAhuk4Dc6WSL-73" value="encargado_diagnostico" style="text;strokeColor=none;fillColor=none;align=left;verticalAlign=top;spacingLeft=4;spacingRight=4;overflow=hidden;rotatable=0;points=[[0,0.5],[1,0.5]];portConstraint=eastwest;whiteSpace=wrap;html=1;" vertex="1" parent="fQByTUNaAAhuk4Dc6WSL-28">
          <mxGeometry y="104" width="140" height="26" as="geometry" />
        </mxCell>
        <mxCell id="fQByTUNaAAhuk4Dc6WSL-32" value="Máquina" style="swimlane;fontStyle=0;childLayout=stackLayout;horizontal=1;startSize=26;fillColor=none;horizontalStack=0;resizeParent=1;resizeParentMax=0;resizeLast=0;collapsible=1;marginBottom=0;whiteSpace=wrap;html=1;" vertex="1" parent="1">
          <mxGeometry x="815" y="320" width="140" height="78" as="geometry" />
        </mxCell>
        <mxCell id="fQByTUNaAAhuk4Dc6WSL-70" value="id_maquina" style="text;strokeColor=none;fillColor=none;align=left;verticalAlign=top;spacingLeft=4;spacingRight=4;overflow=hidden;rotatable=0;points=[[0,0.5],[1,0.5]];portConstraint=eastwest;whiteSpace=wrap;html=1;" vertex="1" parent="fQByTUNaAAhuk4Dc6WSL-32">
          <mxGeometry y="26" width="140" height="26" as="geometry" />
        </mxCell>
        <mxCell id="fQByTUNaAAhuk4Dc6WSL-33" value="tipo_maquina" style="text;strokeColor=none;fillColor=none;align=left;verticalAlign=top;spacingLeft=4;spacingRight=4;overflow=hidden;rotatable=0;points=[[0,0.5],[1,0.5]];portConstraint=eastwest;whiteSpace=wrap;html=1;" vertex="1" parent="fQByTUNaAAhuk4Dc6WSL-32">
          <mxGeometry y="52" width="140" height="26" as="geometry" />
        </mxCell>
        <mxCell id="fQByTUNaAAhuk4Dc6WSL-41" style="edgeStyle=orthogonalEdgeStyle;rounded=0;orthogonalLoop=1;jettySize=auto;html=1;exitX=1;exitY=0.5;exitDx=0;exitDy=0;entryX=0;entryY=0.5;entryDx=0;entryDy=0;endArrow=none;endFill=0;" edge="1" parent="1" source="fQByTUNaAAhuk4Dc6WSL-8">
          <mxGeometry relative="1" as="geometry">
            <mxPoint x="605" y="347" as="targetPoint" />
            <Array as="points">
              <mxPoint x="525" y="237" />
              <mxPoint x="525" y="347" />
            </Array>
          </mxGeometry>
        </mxCell>
        <mxCell id="fQByTUNaAAhuk4Dc6WSL-42" style="edgeStyle=orthogonalEdgeStyle;rounded=0;orthogonalLoop=1;jettySize=auto;html=1;exitX=1;exitY=0.5;exitDx=0;exitDy=0;endArrow=none;endFill=0;" edge="1" parent="1" source="fQByTUNaAAhuk4Dc6WSL-12">
          <mxGeometry relative="1" as="geometry">
            <mxPoint x="605" y="362" as="targetPoint" />
            <Array as="points">
              <mxPoint x="525" y="479" />
              <mxPoint x="525" y="362" />
            </Array>
          </mxGeometry>
        </mxCell>
        <mxCell id="fQByTUNaAAhuk4Dc6WSL-43" style="edgeStyle=orthogonalEdgeStyle;rounded=0;orthogonalLoop=1;jettySize=auto;html=1;entryX=0;entryY=0.269;entryDx=0;entryDy=0;entryPerimeter=0;endArrow=none;endFill=0;exitX=0.5;exitY=1;exitDx=0;exitDy=0;" edge="1" parent="1" source="fQByTUNaAAhuk4Dc6WSL-28" target="fQByTUNaAAhuk4Dc6WSL-12">
          <mxGeometry relative="1" as="geometry">
            <mxPoint x="185" y="439" as="sourcePoint" />
            <Array as="points">
              <mxPoint x="185" y="474" />
              <mxPoint x="315" y="474" />
            </Array>
          </mxGeometry>
        </mxCell>
        <mxCell id="fQByTUNaAAhuk4Dc6WSL-44" style="edgeStyle=orthogonalEdgeStyle;rounded=0;orthogonalLoop=1;jettySize=auto;html=1;endArrow=none;endFill=0;exitX=0.5;exitY=0;exitDx=0;exitDy=0;entryX=0;entryY=0.5;entryDx=0;entryDy=0;" edge="1" parent="1" source="fQByTUNaAAhuk4Dc6WSL-28" target="fQByTUNaAAhuk4Dc6WSL-8">
          <mxGeometry relative="1" as="geometry">
            <mxPoint x="195" y="304" as="sourcePoint" />
            <mxPoint x="305" y="244" as="targetPoint" />
          </mxGeometry>
        </mxCell>
        <mxCell id="fQByTUNaAAhuk4Dc6WSL-45" style="edgeStyle=orthogonalEdgeStyle;rounded=0;orthogonalLoop=1;jettySize=auto;html=1;entryX=0.5;entryY=0;entryDx=0;entryDy=0;endArrow=none;endFill=0;exitX=0.5;exitY=1;exitDx=0;exitDy=0;" edge="1" parent="1" source="fQByTUNaAAhuk4Dc6WSL-14" target="fQByTUNaAAhuk4Dc6WSL-32">
          <mxGeometry relative="1" as="geometry">
            <mxPoint x="875" y="222" as="sourcePoint" />
          </mxGeometry>
        </mxCell>
        <mxCell id="fQByTUNaAAhuk4Dc6WSL-46" value="" style="endArrow=none;html=1;rounded=0;exitX=0.5;exitY=0;exitDx=0;exitDy=0;entryX=0.5;entryY=1;entryDx=0;entryDy=0;" edge="1" parent="1" source="fQByTUNaAAhuk4Dc6WSL-22" target="fQByTUNaAAhuk4Dc6WSL-1">
          <mxGeometry width="50" height="50" relative="1" as="geometry">
            <mxPoint x="685" y="442" as="sourcePoint" />
            <mxPoint x="675" y="392" as="targetPoint" />
          </mxGeometry>
        </mxCell>
        <mxCell id="fQByTUNaAAhuk4Dc6WSL-47" value="examinado en" style="text;html=1;align=center;verticalAlign=middle;resizable=0;points=[];autosize=1;strokeColor=none;fillColor=none;" vertex="1" parent="1">
          <mxGeometry x="885" y="279" width="100" height="30" as="geometry" />
        </mxCell>
        <mxCell id="fQByTUNaAAhuk4Dc6WSL-48" value="gestionada por" style="text;html=1;align=center;verticalAlign=middle;resizable=0;points=[];autosize=1;strokeColor=none;fillColor=none;" vertex="1" parent="1">
          <mxGeometry x="885" y="408" width="100" height="30" as="geometry" />
        </mxCell>
        <mxCell id="fQByTUNaAAhuk4Dc6WSL-50" value="se rige por" style="text;html=1;align=center;verticalAlign=middle;resizable=0;points=[];autosize=1;strokeColor=none;fillColor=none;" vertex="1" parent="1">
          <mxGeometry x="675" y="398" width="80" height="30" as="geometry" />
        </mxCell>
        <mxCell id="fQByTUNaAAhuk4Dc6WSL-49" value="generada por" style="text;html=1;align=center;verticalAlign=middle;resizable=0;points=[];autosize=1;strokeColor=none;fillColor=none;fontSize=10;" vertex="1" parent="1">
          <mxGeometry x="740" y="319" width="80" height="30" as="geometry" />
        </mxCell>
        <mxCell id="fQByTUNaAAhuk4Dc6WSL-53" value="analiza" style="text;html=1;align=center;verticalAlign=middle;resizable=0;points=[];autosize=1;strokeColor=none;fillColor=none;" vertex="1" parent="1">
          <mxGeometry x="535" y="319" width="60" height="30" as="geometry" />
        </mxCell>
        <mxCell id="fQByTUNaAAhuk4Dc6WSL-54" value="analiza" style="text;html=1;align=center;verticalAlign=middle;resizable=0;points=[];autosize=1;strokeColor=none;fillColor=none;" vertex="1" parent="1">
          <mxGeometry x="535" y="361" width="60" height="30" as="geometry" />
        </mxCell>
        <mxCell id="fQByTUNaAAhuk4Dc6WSL-55" value="generado por" style="text;html=1;align=center;verticalAlign=middle;resizable=0;points=[];autosize=1;strokeColor=none;fillColor=none;" vertex="1" parent="1">
          <mxGeometry x="200" y="239" width="90" height="30" as="geometry" />
        </mxCell>
        <mxCell id="fQByTUNaAAhuk4Dc6WSL-56" value="generado por" style="text;html=1;align=center;verticalAlign=middle;resizable=0;points=[];autosize=1;strokeColor=none;fillColor=none;" vertex="1" parent="1">
          <mxGeometry x="200" y="479" width="90" height="30" as="geometry" />
        </mxCell>
        <mxCell id="fQByTUNaAAhuk4Dc6WSL-58" value="" style="endArrow=none;html=1;rounded=0;exitX=1;exitY=0.5;exitDx=0;exitDy=0;" edge="1" parent="1">
          <mxGeometry width="50" height="50" relative="1" as="geometry">
            <mxPoint x="744.9999999999998" y="347" as="sourcePoint" />
            <mxPoint x="815" y="347" as="targetPoint" />
          </mxGeometry>
        </mxCell>
      </root>
    </mxGraphModel>
  </diagram>
</mxfile>
